<?xml version="1.0" ?><!DOCTYPE svg  PUBLIC '-//W3C//DTD SVG 1.1//EN'  'http://www.w3.org/Graphics/SVG/1.1/DTD/svg11.dtd'><svg height="1.04167in" style="shape-rendering:geometricPrecision; text-rendering:geometricPrecision; image-rendering:optimizeQuality; fill-rule:evenodd; clip-rule:evenodd" version="1.1" viewBox="0 0 341 341" width="1.04167in" xml:space="preserve" xmlns="http://www.w3.org/2000/svg" xmlns:xlink="http://www.w3.org/1999/xlink"><defs><style type="text/css">
   <![CDATA[
    .fil1 {fill:#FEFEFE}
    .fil0 {fill:#25BAD8}
   ]]>
  </style></defs><g id="Layer_x0020_1"><g id="_320494216"><rect class="fil0" height="341" rx="33" ry="33" width="341"/><path class="fil1" d="M292 114c-13,78 -90,144 -114,159 -23,15 -44,-6 -52,-22 -8,-18 -35,-117 -42,-125 -6,-8 -27,8 -27,8l-10 -13c0,0 42,-50 74,-56 34,-7 34,52 42,84 8,32 13,50 20,50 7,0 20,-18 34,-45 15,-27 0,-50 -29,-33 12,-68 118,-84 104,-7z"/></g></g></svg>