<?xml version="1.0" standalone="no"?>
<!DOCTYPE svg PUBLIC "-//W3C//DTD SVG 20010904//EN"
 "http://www.w3.org/TR/2001/REC-SVG-20010904/DTD/svg10.dtd">
<svg version="1.0" xmlns="http://www.w3.org/2000/svg"
 width="512.000000pt" height="512.000000pt" viewBox="0 0 512.000000 512.000000"
 preserveAspectRatio="xMidYMid meet">

<g transform="translate(0.000000,512.000000) scale(0.100000,-0.100000)"
fill="#000000" stroke="none">
<path d="M1092 3132 c-1 -13 -8 -36 -16 -50 -7 -15 -26 -65 -41 -112 -14 -47
-38 -110 -53 -140 -14 -30 -27 -64 -29 -75 -2 -10 -7 -22 -11 -25 -5 -3 -16
-27 -27 -55 -10 -27 -33 -63 -52 -79 -18 -16 -33 -36 -33 -44 0 -7 -7 -20 -15
-28 -8 -9 -15 -33 -15 -56 0 -39 -1 -39 -30 -33 -26 6 -30 4 -30 -14 0 -12 -4
-21 -9 -21 -6 0 -16 -12 -23 -27 -12 -24 -19 -28 -58 -28 -25 0 -51 -4 -59 -9
-10 -6 -16 -6 -19 2 -5 16 -35 15 -50 0 -16 -16 -17 -886 -1 -1025 36 -328
197 -567 476 -707 84 -42 183 -70 308 -88 130 -19 2380 -19 2510 0 125 18 224
46 308 88 284 142 443 383 477 722 7 65 10 285 8 562 l-3 454 -33 7 c-18 4
-35 3 -38 -2 -3 -5 -25 -7 -49 -4 -25 2 -47 -1 -51 -7 -4 -6 -13 3 -20 21 -7
17 -18 31 -24 31 -5 0 -10 12 -10 26 0 23 -3 25 -29 19 -28 -6 -28 -5 -33 47
-3 28 -11 54 -17 56 -6 2 -11 13 -11 24 0 11 -8 22 -19 25 -11 3 -22 16 -25
29 -4 13 -11 23 -17 21 -6 -1 -18 16 -25 38 -8 21 -18 42 -24 45 -5 3 -10 17
-12 30 -2 14 -16 50 -31 80 -14 30 -38 93 -53 140 -15 47 -31 90 -35 96 -5 6
-13 28 -18 50 -6 25 -9 -197 -10 -626 -1 -439 -5 -678 -12 -704 -6 -21 -29
-58 -51 -82 -73 -79 17 -74 -1398 -74 -1399 0 -1324 -4 -1391 67 -68 71 -64
23 -69 773 -3 377 -6 674 -8 662z"/>
<path d="M1964 2545 c3 -23 37 -54 53 -48 11 4 8 12 -13 34 -31 32 -43 37 -40
14z"/>
<path d="M3116 2531 c-21 -22 -24 -30 -13 -34 19 -7 59 34 48 51 -5 9 -15 4
-35 -17z"/>
<path d="M2450 2176 c19 -8 68 -14 110 -14 42 0 91 6 110 14 l35 14 -35 -6
c-19 -4 -69 -7 -110 -7 -41 0 -91 3 -110 7 l-35 6 35 -14z"/>
</g>
</svg>
